
      <svg data-logo="logo" xmlns="http://www.w3.org/2000/svg" viewBox="0 0 363 42">
        <g id="logogram" transform="translate(0, 1) rotate(0) "><path d="M43 0C50.1797 6.44277e-07 56 5.8203 56 13C56 20.1797 50.1797 26 43 26H34.4844L48.4844 40H31.5156L15.7578 24.2422C14.672 23.1564 14 21.6569 14 20C14 16.6863 16.6863 14 20 14H43C43.5523 14 44 13.5523 44 13C44 12.4477 43.5523 12 43 12H20C15.5817 12 12 15.5817 12 20C12 22.3901 13.0482 24.5347 14.71 26H14.6875L28.6875 40H20C8.95431 40 0 31.0457 0 20C0 8.95431 8.9543 0 20 0H43Z" fill="#3902FF"/><path d="M56 28V40H51.3125L39.3125 28H56Z" fill="#3902FF"/></g>
        <g id="logotype" transform="translate(62, 10.5)"><path fill="#ffffff" d="M27.27 7L27.27 21L23.36 21L23.36 7Q23.36 6.59 23.21 6.23Q23.05 5.88 22.78 5.61Q22.52 5.35 22.16 5.20Q21.80 5.04 21.39 5.04L21.39 5.04Q20.98 5.04 20.63 5.20Q20.27 5.35 20.01 5.61Q19.74 5.88 19.59 6.23Q19.44 6.59 19.44 7L19.44 7L19.44 21L15.52 21L15.52 7Q15.52 6.59 15.37 6.23Q15.21 5.88 14.95 5.61Q14.68 5.35 14.33 5.20Q13.97 5.04 13.56 5.04L13.56 5.04Q13.15 5.04 12.79 5.20Q12.44 5.35 12.17 5.61Q11.91 5.88 11.76 6.23Q11.61 6.59 11.61 7L11.61 7L11.61 21L7.68 21L7.68 7Q7.68 5.78 8.14 4.71Q8.60 3.64 9.40 2.84Q10.20 2.04 11.27 1.58Q12.34 1.12 13.56 1.12L13.56 1.12Q14.65 1.12 15.67 1.51Q16.68 1.90 17.48 2.64L17.48 2.64Q18.29 1.90 19.30 1.51Q20.30 1.12 21.39 1.12L21.39 1.12Q22.61 1.12 23.68 1.58Q24.76 2.04 25.56 2.84Q26.36 3.64 26.82 4.71Q27.27 5.78 27.27 7L27.27 7ZM43.04 8.98L36.04 17.42Q36.26 17.49 36.47 17.51Q36.69 17.53 36.91 17.53L36.91 17.53Q37.46 17.53 37.96 17.38Q38.47 17.23 38.92 16.95Q39.36 16.67 39.71 16.26Q40.06 15.86 40.28 15.37L40.28 15.37L43.01 18.12Q42.49 18.85 41.81 19.44Q41.14 20.03 40.35 20.44Q39.56 20.85 38.70 21.06Q37.83 21.27 36.91 21.27L36.91 21.27Q35.37 21.27 34.01 20.70Q32.65 20.13 31.63 19.10Q30.61 18.07 30.02 16.66Q29.43 15.24 29.43 13.55L29.43 13.55Q29.43 11.81 30.02 10.38Q30.61 8.94 31.63 7.93Q32.65 6.92 34.01 6.36Q35.37 5.80 36.91 5.80L36.91 5.80Q37.83 5.80 38.70 6.02Q39.58 6.23 40.36 6.64Q41.15 7.05 41.83 7.65Q42.52 8.24 43.04 8.98L43.04 8.98ZM33.60 15.49L37.95 9.72Q37.69 9.63 37.44 9.60Q37.19 9.57 36.91 9.57L36.91 9.57Q36.15 9.57 35.47 9.85Q34.79 10.13 34.29 10.65Q33.79 11.17 33.51 11.90Q33.22 12.63 33.22 13.55L33.22 13.55Q33.22 13.75 33.24 14.01Q33.26 14.27 33.31 14.54Q33.36 14.81 33.43 15.05Q33.49 15.30 33.60 15.49L33.60 15.49ZM48.64 12.63L48.64 21L44.91 21L44.91 6.36L45.81 6.36L47.04 7.78Q47.95 6.96 49.09 6.51Q50.23 6.07 51.47 6.07L51.47 6.07Q52.81 6.07 54.00 6.58Q55.19 7.10 56.08 7.99Q56.97 8.89 57.48 10.08Q57.99 11.28 57.99 12.63L57.99 12.63L57.99 21L54.26 21L54.26 12.63Q54.26 12.06 54.04 11.55Q53.82 11.03 53.44 10.65Q53.06 10.27 52.55 10.05Q52.05 9.83 51.47 9.83L51.47 9.83Q50.88 9.83 50.37 10.05Q49.85 10.27 49.46 10.65Q49.08 11.03 48.86 11.55Q48.64 12.06 48.64 12.63L48.64 12.63ZM70.63 21L67.80 21Q66.44 21 65.25 20.49Q64.06 19.97 63.17 19.08Q62.27 18.18 61.76 16.99Q61.25 15.80 61.25 14.45L61.25 14.45L61.25 10.10L59.43 10.10L59.43 6.38L61.25 6.38L61.25 0.53L64.97 0.53L64.97 6.38L70.63 6.38L70.63 10.10L64.97 10.10L64.97 14.45Q64.97 15.04 65.19 15.55Q65.40 16.06 65.79 16.45Q66.17 16.83 66.69 17.06Q67.21 17.28 67.80 17.28L67.80 17.28L70.63 17.28L70.63 21ZM86.87 13.55L86.87 13.55Q86.87 15.19 86.28 16.60Q85.69 18.02 84.68 19.05Q83.67 20.08 82.31 20.68Q80.95 21.27 79.39 21.27L79.39 21.27Q77.85 21.27 76.49 20.68Q75.13 20.08 74.11 19.05Q73.09 18.02 72.50 16.60Q71.91 15.19 71.91 13.55L71.91 13.55Q71.91 11.88 72.50 10.46Q73.09 9.04 74.11 8.00Q75.13 6.97 76.49 6.38Q77.85 5.80 79.39 5.80L79.39 5.80Q80.95 5.80 82.31 6.35Q83.67 6.90 84.68 7.92Q85.69 8.94 86.28 10.37Q86.87 11.80 86.87 13.55ZM83.11 13.55L83.11 13.55Q83.11 12.65 82.82 11.92Q82.52 11.18 82.02 10.66Q81.51 10.13 80.83 9.85Q80.16 9.57 79.39 9.57L79.39 9.57Q78.63 9.57 77.95 9.85Q77.27 10.13 76.77 10.66Q76.27 11.18 75.99 11.92Q75.70 12.65 75.70 13.55L75.70 13.55Q75.70 14.40 75.99 15.12Q76.27 15.85 76.77 16.38Q77.27 16.91 77.95 17.22Q78.63 17.53 79.39 17.53L79.39 17.53Q80.16 17.53 80.83 17.24Q81.51 16.95 82.02 16.43Q82.52 15.91 82.82 15.18Q83.11 14.44 83.11 13.55ZM92.67 12.93L92.67 21L88.93 21L88.93 6.36L89.84 6.36L91.07 8.09Q91.97 7.27 93.12 6.83Q94.27 6.38 95.50 6.38L95.50 6.38L98.79 6.38L98.79 10.10L95.50 10.10Q94.91 10.10 94.39 10.32Q93.87 10.54 93.49 10.92Q93.10 11.31 92.88 11.83Q92.67 12.35 92.67 12.93L92.67 12.93ZM122.51 0.53L122.51 21L121.61 21L120.16 18.99Q119.63 19.47 119.03 19.89Q118.44 20.30 117.78 20.61Q117.13 20.92 116.43 21.10Q115.74 21.27 115.03 21.27L115.03 21.27Q113.49 21.27 112.13 20.69Q110.77 20.11 109.75 19.08Q108.73 18.05 108.14 16.63Q107.55 15.22 107.55 13.55L107.55 13.55Q107.55 11.89 108.14 10.47Q108.73 9.05 109.75 8.01Q110.77 6.97 112.13 6.38Q113.49 5.80 115.03 5.80L115.03 5.80Q115.53 5.80 116.05 5.88Q116.58 5.96 117.08 6.15Q117.58 6.33 118.01 6.63Q118.45 6.93 118.75 7.37L118.75 7.37L118.75 0.53L122.51 0.53ZM118.75 13.55L118.75 13.55Q118.75 12.78 118.46 12.07Q118.16 11.35 117.66 10.79Q117.15 10.24 116.48 9.91Q115.80 9.57 115.03 9.57L115.03 9.57Q114.27 9.57 113.59 9.84Q112.91 10.12 112.42 10.63Q111.92 11.14 111.63 11.88Q111.34 12.62 111.34 13.55L111.34 13.55Q111.34 14.36 111.63 15.08Q111.92 15.80 112.42 16.35Q112.91 16.90 113.59 17.21Q114.27 17.53 115.03 17.53L115.03 17.53Q115.80 17.53 116.48 17.19Q117.15 16.86 117.66 16.30Q118.16 15.75 118.46 15.03Q118.75 14.31 118.75 13.55ZM139.51 13.55L139.51 13.55Q139.51 15.19 138.92 16.60Q138.33 18.02 137.32 19.05Q136.31 20.08 134.95 20.68Q133.59 21.27 132.03 21.27L132.03 21.27Q130.48 21.27 129.12 20.68Q127.76 20.08 126.74 19.05Q125.72 18.02 125.14 16.60Q124.55 15.19 124.55 13.55L124.55 13.55Q124.55 11.88 125.14 10.46Q125.72 9.04 126.74 8.00Q127.76 6.97 129.12 6.38Q130.48 5.80 132.03 5.80L132.03 5.80Q133.59 5.80 134.95 6.35Q136.31 6.90 137.32 7.92Q138.33 8.94 138.92 10.37Q139.51 11.80 139.51 13.55ZM135.75 13.55L135.75 13.55Q135.75 12.65 135.45 11.92Q135.16 11.18 134.65 10.66Q134.15 10.13 133.47 9.85Q132.79 9.57 132.03 9.57L132.03 9.57Q131.26 9.57 130.58 9.85Q129.91 10.13 129.41 10.66Q128.91 11.18 128.62 11.92Q128.34 12.65 128.34 13.55L128.34 13.55Q128.34 14.40 128.62 15.12Q128.91 15.85 129.41 16.38Q129.91 16.91 130.58 17.22Q131.26 17.53 132.03 17.53L132.03 17.53Q132.79 17.53 133.47 17.24Q134.15 16.95 134.65 16.43Q135.16 15.91 135.45 15.18Q135.75 14.44 135.75 13.55ZM157.65 5.32L153.72 5.32L153.72 13.17L157.65 13.17Q158.46 13.17 159.17 12.86Q159.88 12.55 160.41 12.02Q160.94 11.48 161.25 10.77Q161.56 10.05 161.56 9.24L161.56 9.24Q161.56 8.44 161.25 7.72Q160.94 7 160.41 6.47Q159.88 5.93 159.17 5.63Q158.46 5.32 157.65 5.32L157.65 5.32ZM153.72 17.08L153.72 21L149.80 21L149.80 1.39L157.65 1.39Q158.73 1.39 159.73 1.67Q160.72 1.96 161.59 2.47Q162.46 2.98 163.18 3.70Q163.90 4.42 164.41 5.29Q164.92 6.17 165.20 7.16Q165.48 8.16 165.48 9.24L165.48 9.24Q165.48 10.25 165.23 11.21Q164.98 12.17 164.50 13.03Q164.03 13.89 163.35 14.62Q162.67 15.34 161.82 15.87L161.82 15.87L163.99 21L159.82 21L158.11 17.05L153.72 17.08ZM180.32 8.98L173.32 17.42Q173.54 17.49 173.75 17.51Q173.97 17.53 174.19 17.53L174.19 17.53Q174.74 17.53 175.24 17.38Q175.75 17.23 176.19 16.95Q176.64 16.67 176.99 16.26Q177.34 15.86 177.55 15.37L177.55 15.37L180.29 18.12Q179.77 18.85 179.09 19.44Q178.42 20.03 177.63 20.44Q176.84 20.85 175.98 21.06Q175.11 21.27 174.19 21.27L174.19 21.27Q172.65 21.27 171.29 20.70Q169.93 20.13 168.91 19.10Q167.89 18.07 167.30 16.66Q166.71 15.24 166.71 13.55L166.71 13.55Q166.71 11.81 167.30 10.38Q167.89 8.94 168.91 7.93Q169.93 6.92 171.29 6.36Q172.65 5.80 174.19 5.80L174.19 5.80Q175.11 5.80 175.98 6.02Q176.86 6.23 177.64 6.64Q178.43 7.05 179.11 7.65Q179.80 8.24 180.32 8.98L180.32 8.98ZM170.88 15.49L175.23 9.72Q174.97 9.63 174.72 9.60Q174.46 9.57 174.19 9.57L174.19 9.57Q173.43 9.57 172.75 9.85Q172.07 10.13 171.57 10.65Q171.07 11.17 170.79 11.90Q170.50 12.63 170.50 13.55L170.50 13.55Q170.50 13.75 170.52 14.01Q170.54 14.27 170.59 14.54Q170.64 14.81 170.71 15.05Q170.77 15.30 170.88 15.49L170.88 15.49ZM185.92 12.63L185.92 21L182.19 21L182.19 6.36L183.09 6.36L184.32 7.78Q185.22 6.96 186.37 6.51Q187.51 6.07 188.75 6.07L188.75 6.07Q190.09 6.07 191.28 6.58Q192.47 7.10 193.36 7.99Q194.25 8.89 194.76 10.08Q195.27 11.28 195.27 12.63L195.27 12.63L195.27 21L191.54 21L191.54 12.63Q191.54 12.06 191.32 11.55Q191.10 11.03 190.72 10.65Q190.34 10.27 189.83 10.05Q189.33 9.83 188.75 9.83L188.75 9.83Q188.16 9.83 187.64 10.05Q187.13 10.27 186.74 10.65Q186.36 11.03 186.14 11.55Q185.92 12.06 185.92 12.63L185.92 12.63ZM212.08 0.53L212.08 21L211.17 21L209.72 18.99Q209.19 19.47 208.60 19.89Q208.00 20.30 207.35 20.61Q206.69 20.92 206.00 21.10Q205.31 21.27 204.60 21.27L204.60 21.27Q203.05 21.27 201.69 20.69Q200.33 20.11 199.31 19.08Q198.29 18.05 197.71 16.63Q197.12 15.22 197.12 13.55L197.12 13.55Q197.12 11.89 197.71 10.47Q198.29 9.05 199.31 8.01Q200.33 6.97 201.69 6.38Q203.05 5.80 204.60 5.80L204.60 5.80Q205.09 5.80 205.62 5.88Q206.14 5.96 206.64 6.15Q207.14 6.33 207.58 6.63Q208.02 6.93 208.32 7.37L208.32 7.37L208.32 0.53L212.08 0.53ZM208.32 13.55L208.32 13.55Q208.32 12.78 208.02 12.07Q207.73 11.35 207.22 10.79Q206.72 10.24 206.04 9.91Q205.36 9.57 204.60 9.57L204.60 9.57Q203.83 9.57 203.16 9.84Q202.48 10.12 201.98 10.63Q201.48 11.14 201.19 11.88Q200.91 12.62 200.91 13.55L200.91 13.55Q200.91 14.36 201.19 15.08Q201.48 15.80 201.98 16.35Q202.48 16.90 203.16 17.21Q203.83 17.53 204.60 17.53L204.60 17.53Q205.36 17.53 206.04 17.19Q206.72 16.86 207.22 16.30Q207.73 15.75 208.02 15.03Q208.32 14.31 208.32 13.55ZM219.32 2.38L219.32 2.38Q219.32 2.90 219.12 3.35Q218.93 3.80 218.58 4.14Q218.24 4.47 217.78 4.67Q217.33 4.87 216.81 4.87L216.81 4.87Q216.29 4.87 215.83 4.67Q215.37 4.47 215.04 4.14Q214.70 3.80 214.50 3.35Q214.30 2.90 214.30 2.38L214.30 2.38Q214.30 1.87 214.50 1.42Q214.70 0.96 215.04 0.62Q215.37 0.29 215.83 0.09Q216.29-0.11 216.81-0.11L216.81-0.11Q217.33-0.11 217.78 0.09Q218.24 0.29 218.58 0.62Q218.93 0.96 219.12 1.42Q219.32 1.87 219.32 2.38ZM218.68 6.36L218.68 21L214.92 21L214.92 6.36L218.68 6.36ZM240.14 11.70L240.14 21L236.43 21L236.43 11.70Q236.43 11.32 236.28 10.98Q236.14 10.64 235.88 10.38Q235.62 10.12 235.28 9.97Q234.94 9.83 234.55 9.83L234.55 9.83Q234.17 9.83 233.83 9.97Q233.50 10.12 233.25 10.38Q232.99 10.64 232.85 10.98Q232.71 11.32 232.71 11.70L232.71 11.70L232.71 21L228.97 21L228.97 11.70Q228.97 11.32 228.83 10.98Q228.69 10.64 228.43 10.38Q228.17 10.12 227.83 9.97Q227.48 9.83 227.10 9.83L227.10 9.83Q226.72 9.83 226.38 9.97Q226.05 10.12 225.80 10.38Q225.54 10.64 225.40 10.98Q225.26 11.32 225.26 11.70L225.26 11.70L225.26 21L221.52 21L221.52 6.36L222.43 6.36L223.44 7.48Q224.22 6.82 225.15 6.46Q226.09 6.10 227.10 6.10L227.10 6.10Q228.13 6.10 229.10 6.48Q230.08 6.86 230.82 7.81L230.82 7.81Q231.16 7.34 231.60 7.01Q232.04 6.69 232.52 6.48Q233.01 6.28 233.53 6.19Q234.05 6.10 234.55 6.10L234.55 6.10Q235.71 6.10 236.73 6.54Q237.75 6.97 238.51 7.73Q239.27 8.49 239.71 9.52Q240.14 10.54 240.14 11.70L240.14 11.70ZM255.69 8.98L248.69 17.42Q248.91 17.49 249.13 17.51Q249.35 17.53 249.56 17.53L249.56 17.53Q250.11 17.53 250.62 17.38Q251.12 17.23 251.57 16.95Q252.01 16.67 252.36 16.26Q252.71 15.86 252.93 15.37L252.93 15.37L255.66 18.12Q255.14 18.85 254.47 19.44Q253.79 20.03 253.00 20.44Q252.22 20.85 251.35 21.06Q250.48 21.27 249.56 21.27L249.56 21.27Q248.02 21.27 246.66 20.70Q245.30 20.13 244.28 19.10Q243.26 18.07 242.67 16.66Q242.09 15.24 242.09 13.55L242.09 13.55Q242.09 11.81 242.67 10.38Q243.26 8.94 244.28 7.93Q245.30 6.92 246.66 6.36Q248.02 5.80 249.56 5.80L249.56 5.80Q250.48 5.80 251.36 6.02Q252.23 6.23 253.02 6.64Q253.80 7.05 254.49 7.65Q255.17 8.24 255.69 8.98L255.69 8.98ZM246.26 15.49L250.60 9.72Q250.34 9.63 250.09 9.60Q249.84 9.57 249.56 9.57L249.56 9.57Q248.80 9.57 248.12 9.85Q247.45 10.13 246.95 10.65Q246.45 11.17 246.16 11.90Q245.87 12.63 245.87 13.55L245.87 13.55Q245.87 13.75 245.89 14.01Q245.91 14.27 245.96 14.54Q246.01 14.81 246.08 15.05Q246.15 15.30 246.26 15.49L246.26 15.49ZM261.29 12.63L261.29 21L257.56 21L257.56 6.36L258.46 6.36L259.70 7.78Q260.60 6.96 261.74 6.51Q262.88 6.07 264.13 6.07L264.13 6.07Q265.46 6.07 266.65 6.58Q267.84 7.10 268.73 7.99Q269.62 8.89 270.13 10.08Q270.65 11.28 270.65 12.63L270.65 12.63L270.65 21L266.91 21L266.91 12.63Q266.91 12.06 266.70 11.55Q266.48 11.03 266.09 10.65Q265.71 10.27 265.21 10.05Q264.70 9.83 264.13 9.83L264.13 9.83Q263.54 9.83 263.02 10.05Q262.50 10.27 262.12 10.65Q261.73 11.03 261.51 11.55Q261.29 12.06 261.29 12.63L261.29 12.63ZM283.28 21L280.45 21Q279.10 21 277.91 20.49Q276.72 19.97 275.82 19.08Q274.93 18.18 274.41 16.99Q273.90 15.80 273.90 14.45L273.90 14.45L273.90 10.10L272.08 10.10L272.08 6.38L273.90 6.38L273.90 0.53L277.62 0.53L277.62 6.38L283.28 6.38L283.28 10.10L277.62 10.10L277.62 14.45Q277.62 15.04 277.84 15.55Q278.06 16.06 278.44 16.45Q278.82 16.83 279.34 17.06Q279.86 17.28 280.45 17.28L280.45 17.28L283.28 17.28L283.28 21ZM299.52 13.55L299.52 13.55Q299.52 15.19 298.93 16.60Q298.35 18.02 297.33 19.05Q296.32 20.08 294.96 20.68Q293.60 21.27 292.04 21.27L292.04 21.27Q290.50 21.27 289.14 20.68Q287.78 20.08 286.76 19.05Q285.74 18.02 285.15 16.60Q284.56 15.19 284.56 13.55L284.56 13.55Q284.56 11.88 285.15 10.46Q285.74 9.04 286.76 8.00Q287.78 6.97 289.14 6.38Q290.50 5.80 292.04 5.80L292.04 5.80Q293.60 5.80 294.96 6.35Q296.32 6.90 297.33 7.92Q298.35 8.94 298.93 10.37Q299.52 11.80 299.52 13.55ZM295.76 13.55L295.76 13.55Q295.76 12.65 295.47 11.92Q295.17 11.18 294.67 10.66Q294.16 10.13 293.49 9.85Q292.81 9.57 292.04 9.57L292.04 9.57Q291.28 9.57 290.60 9.85Q289.92 10.13 289.42 10.66Q288.93 11.18 288.64 11.92Q288.35 12.65 288.35 13.55L288.35 13.55Q288.35 14.40 288.64 15.12Q288.93 15.85 289.42 16.38Q289.92 16.91 290.60 17.22Q291.28 17.53 292.04 17.53L292.04 17.53Q292.81 17.53 293.49 17.24Q294.16 16.95 294.67 16.43Q295.17 15.91 295.47 15.18Q295.76 14.44 295.76 13.55Z"/></g>
        
      </svg>
    